<svg width="144" height="144" viewBox="0 0 144 144" fill="none" xmlns="http://www.w3.org/2000/svg">
<rect width="144" height="144" fill="white"/>
<path d="M94.4117 53.75V90.2117H90.6613V57.0837H82.0668V53.75H94.4117Z" fill="#F96E46"/>
<path d="M117.66 90.5242C114.847 90.5242 112.33 89.7776 110.107 88.2845C107.92 86.7913 106.201 84.6556 104.951 81.8776C103.735 79.0649 103.127 75.7659 103.127 71.9809C103.127 68.1958 103.735 64.9142 104.951 62.1362C106.201 59.3235 107.92 57.1705 110.107 55.6773C112.33 54.1841 114.847 53.4375 117.66 53.4375C120.473 53.4375 122.973 54.1841 125.161 55.6773C127.383 57.1705 129.119 59.3235 130.37 62.1362C131.62 64.9142 132.245 68.1958 132.245 71.9809C132.245 75.7659 131.62 79.0649 130.37 81.8776C129.119 84.6556 127.383 86.7913 125.161 88.2845C122.973 89.7776 120.473 90.5242 117.66 90.5242ZM117.66 87.0864C119.778 87.0864 121.636 86.4961 123.233 85.3154C124.866 84.1348 126.133 82.4159 127.036 80.1587C127.939 77.9016 128.39 75.1756 128.39 71.9809C128.39 68.7861 127.939 66.0602 127.036 63.803C126.133 61.5459 124.866 59.827 123.233 58.6463C121.636 57.4656 119.778 56.8753 117.66 56.8753C115.542 56.8753 113.667 57.4656 112.035 58.6463C110.437 59.827 109.187 61.5459 108.284 63.803C107.381 66.0602 106.93 68.7861 106.93 71.9809C106.93 75.1756 107.381 77.9016 108.284 80.1587C109.187 82.4159 110.437 84.1348 112.035 85.3154C113.667 86.4961 115.542 87.0864 117.66 87.0864Z" fill="#F96E46"/>
<path d="M23.8761 53.75V90.2117H20.1258V57.0837H11.5312V53.75H23.8761Z" fill="#082D0F"/>
<path d="M47.1245 90.5242C44.3118 90.5242 41.7942 89.7776 39.5717 88.2845C37.384 86.7913 35.6651 84.6556 34.415 81.8776C33.1996 79.0649 32.5919 75.7659 32.5919 71.9809C32.5919 68.1958 33.1996 64.9142 34.415 62.1362C35.6651 59.3235 37.384 57.1705 39.5717 55.6773C41.7942 54.1841 44.3118 53.4375 47.1245 53.4375C49.9373 53.4375 52.4375 54.1841 54.6252 55.6773C56.8476 57.1705 58.5839 59.3235 59.834 62.1362C61.0841 64.9142 61.7092 68.1958 61.7092 71.9809C61.7092 75.7659 61.0841 79.0649 59.834 81.8776C58.5839 84.6556 56.8476 86.7913 54.6252 88.2845C52.4375 89.7776 49.9373 90.5242 47.1245 90.5242ZM47.1245 87.0864C49.2428 87.0864 51.1006 86.4961 52.698 85.3154C54.33 84.1348 55.5975 82.4159 56.5004 80.1587C57.4032 77.9016 57.8547 75.1756 57.8547 71.9809C57.8547 68.7861 57.4032 66.0602 56.5004 63.803C55.5975 61.5459 54.33 59.827 52.698 58.6463C51.1006 57.4656 49.2428 56.8753 47.1245 56.8753C45.0063 56.8753 43.1311 57.4656 41.499 58.6463C39.9016 59.827 38.6515 61.5459 37.7487 63.803C36.8458 66.0602 36.3944 68.7861 36.3944 71.9809C36.3944 75.1756 36.8458 77.9016 37.7487 80.1587C38.6515 82.4159 39.9016 84.1348 41.499 85.3154C43.1311 86.4961 45.0063 87.0864 47.1245 87.0864Z" fill="#082D0F"/>
<path d="M69.8927 68.2826C69.1288 68.2826 68.469 68.0048 67.9134 67.4492C67.3925 66.8936 67.1321 66.2165 67.1321 65.4178C67.1321 64.6191 67.3925 63.9593 67.9134 63.4384C68.469 62.8828 69.1288 62.605 69.8927 62.605C70.6567 62.605 71.3165 62.8828 71.8721 63.4384C72.4277 63.9593 72.7055 64.6191 72.7055 65.4178C72.7055 66.2165 72.4277 66.8936 71.8721 67.4492C71.3165 68.0048 70.6567 68.2826 69.8927 68.2826ZM69.8927 90.4722C69.1288 90.4722 68.469 90.1943 67.9134 89.6387C67.3925 89.0831 67.1321 88.406 67.1321 87.6073C67.1321 86.8086 67.3925 86.1488 67.9134 85.628C68.469 85.0724 69.1288 84.7945 69.8927 84.7945C70.6567 84.7945 71.3165 85.0724 71.8721 85.628C72.4277 86.1488 72.7055 86.8086 72.7055 87.6073C72.7055 88.406 72.4277 89.0831 71.8721 89.6387C71.3165 90.1943 70.6567 90.4722 69.8927 90.4722Z" fill="#082D0F"/>
</svg>
